<?xml version="1.0" encoding="UTF-8" standalone="no"?>
<!-- Generator: Adobe Illustrator 19.0.0, SVG Export Plug-In . SVG Version: 6.00 Build 0)  -->

<svg
   version="1.1"
   id="Layer_1"
   x="0px"
   y="0px"
   viewBox="0 0 512 512"
   style="enable-background:new 0 0 512 512;"
   xml:space="preserve"
   sodipodi:docname="headLeft.svg"
   inkscape:version="1.2 (56b05e47e7, 2022-06-09, custom)"
   xmlns:inkscape="http://www.inkscape.org/namespaces/inkscape"
   xmlns:sodipodi="http://sodipodi.sourceforge.net/DTD/sodipodi-0.dtd"
   xmlns="http://www.w3.org/2000/svg"
   xmlns:svg="http://www.w3.org/2000/svg"><defs
   id="defs75" /><sodipodi:namedview
   id="namedview73"
   pagecolor="#505050"
   bordercolor="#ffffff"
   borderopacity="1"
   inkscape:showpageshadow="0"
   inkscape:pageopacity="0"
   inkscape:pagecheckerboard="1"
   inkscape:deskcolor="#505050"
   showgrid="false"
   inkscape:zoom="0.95523904"
   inkscape:cx="319.29181"
   inkscape:cy="230.83227"
   inkscape:window-width="1920"
   inkscape:window-height="1016"
   inkscape:window-x="0"
   inkscape:window-y="27"
   inkscape:window-maximized="1"
   inkscape:current-layer="Layer_1" />






















<g
   id="g262"
   transform="rotate(-90,256,255.99986)"><path
     style="fill:#82c35f"
     d="M 503,169.56 C 503,137.963 493.162,111.142 478.441,97.719 457.652,56.785 379.995,63.552 311.381,69.54 290.766,71.338 271.289,73.036 256,73.073 240.711,73.036 221.234,71.339 200.619,69.54 132.004,63.553 54.348,56.786 33.559,97.719 18.838,111.141 9,137.963 9,169.56 c 0,17.684 3.09,33.862 8.384,47.047 -0.424,0.956 -0.665,2.012 -0.665,3.125 0,44.715 10.612,76.196 32.441,96.239 22.748,20.887 54.68,26.391 89.427,26.391 19.601,0 40.101,-1.752 60.349,-3.483 19.18,-1.64 39,-3.329 57.064,-3.36 18.063,0.032 37.884,1.721 57.064,3.36 20.251,1.731 40.745,3.483 60.349,3.483 34.744,0 66.681,-5.506 89.427,-26.391 21.83,-20.043 32.441,-51.524 32.441,-96.239 0,-1.113 -0.24,-2.169 -0.665,-3.125 C 499.91,203.421 503,187.243 503,169.56 Z"
     id="path18" /><g
     id="g24">
	<path
   style="fill:#73af55"
   d="m 38,281.111 c 30.928,0 56,-46.563 56,-104 C 94,130.055 77.161,90.357 54.071,77.528 45.064,82.393 38.007,88.961 33.559,97.718 18.838,111.141 9,137.963 9,169.56 c 0,17.684 3.091,33.862 8.384,47.047 -0.425,0.956 -0.665,2.012 -0.665,3.125 0,16.463 1.444,31.126 4.351,44.091 4.675,6.566 9.441,12.248 13.861,17.001 1.022,0.102 2.033,0.287 3.069,0.287 z"
   id="path20" />
	<path
   style="fill:#73af55"
   d="m 418.003,177.111 c 0,57.438 25.072,104 56,104 1.036,0 2.047,-0.185 3.069,-0.288 3.681,-3.958 8.467,-9.61 13.757,-16.536 2.977,-13.078 4.452,-27.897 4.452,-44.556 0,-1.113 -0.24,-2.169 -0.665,-3.125 5.294,-13.185 8.384,-29.363 8.384,-47.046 0,-31.597 -9.838,-58.418 -24.559,-71.841 -4.447,-8.756 -11.503,-15.324 -20.51,-20.189 -23.089,12.829 -39.928,52.527 -39.928,99.581 z"
   id="path22" />
</g><path
     style="fill:#c1c95a"
     d="m 443.148,306.024 c -25.027,0 -56.844,-8.333 -80.934,-61.633 C 337.26,189.18 283.303,171.709 257,171.709 c -26.303,0 -80.26,17.471 -105.214,72.683 -24.09,53.299 -55.907,61.633 -80.934,61.633 -12.908,0 -30.715,-13.061 -42.67,-36.751 23.335,107.498 139.668,68.289 227.818,68.137 85.329,0.148 197.07,36.898 225.3,-58.254 -12.129,17.41 -27.17,26.867 -38.152,26.867 z"
     id="path26" /><path
     style="fill:#82c35f"
     d="m 70.852,306.024 c 25.027,0 56.844,-8.333 80.934,-61.633 24.954,-55.211 78.911,-72.682 105.214,-72.682 26.303,0 80.26,17.471 105.214,72.683 24.09,53.299 55.907,61.633 80.934,61.633 10.982,0 26.023,-9.457 38.152,-26.868 C 504.924,245.245 516.334,122.359 476,91.025 426.329,52.437 321.203,76.899 257,76.899 c -64.203,0 -193.413,-36.38 -223,19.125 -40.333,75.667 -23.847,137.52 -5.818,173.249 11.955,23.691 29.762,36.751 42.67,36.751 z"
     id="path28" /><g
     id="g34">
	<ellipse
   style="fill:#ffce56"
   cx="48"
   cy="169.02"
   rx="40"
   ry="76"
   id="ellipse30" />
	<ellipse
   style="fill:#ffce56"
   cx="464"
   cy="169.02"
   rx="40"
   ry="76"
   id="ellipse32" />
</g><path
     d="m 512,168.316 c 0,-32.748 -10.197,-60.547 -25.454,-74.459003 -21.546,-42.425 -102.033,-35.412 -173.147,-29.206 -21.366,1.864 -41.553,3.623 -57.399,3.662 -15.846,-0.039 -36.033,-1.798 -57.399,-3.662 -71.115,-6.205 -151.600998,-13.219 -173.146998,29.206 C 10.197002,107.769 2.319419e-6,135.568 2.319419e-6,168.316 c 0,18.328 3.202999980581,35.096 8.688999980581,48.761 -0.44,0.991 -0.689,2.085 -0.689,3.239 0,46.345 10.9989997,78.972 33.6239997,99.746 23.577,21.648 56.672,27.353 92.685998,27.353 20.315,0 41.562,-1.816 62.548,-3.61 17.084,-1.46 34.654,-2.953 51.143,-3.367 v 68.273 l -29.657,29.657 c -3.125,3.124 -3.125,8.189 0,11.313 1.562,1.562 3.609,2.343 5.657,2.343 2.048,0 4.095,-0.781 5.657,-2.343 L 256,423.338 l 26.343,26.343 c 1.562,1.562 3.609,2.343 5.657,2.343 2.048,0 4.095,-0.781 5.657,-2.343 3.125,-3.124 3.125,-8.189 0,-11.313 L 264,408.711 v -68.273 c 16.489,0.414 34.059,1.906 51.143,3.367 20.989,1.794 42.229,3.61 62.548,3.61 36.01,0 69.11,-5.707 92.686,-27.353 C 493.001,299.288 504,266.661 504,220.316 c 0,-1.154 -0.249,-2.248 -0.689,-3.239 5.486,-13.665 8.689,-30.433 8.689,-48.761 z m -16,0 c 0,40.073 -16.864,68 -32,68 -15.136,0 -32,-27.927 -32,-68 0,-40.073 16.864,-68 32,-68 15.136,0 32,27.927 32,68 z m -447.999998,-68 c 15.136,0 32,27.927 32,68 0,40.073 -16.864,68 -32,68 -15.136,0 -32,-27.927 -32,-68 0,-40.073 16.864,-68 32,-68 z M 459.555,308.276 C 427.857,337.381 371.25,332.543 316.506,327.863 299.042,326.37 281.075,324.843 264,324.432 V 180.548 c 27.346,1.593 68.581,12.278 88.651,58.929 11.637,27.048 25.999,46.695 42.686,58.394 10.979,7.697 22.906,11.68 34.545,11.68 4.072,0 8.11,-0.488 12.058,-1.475 4.286,-1.072 6.892,-5.415 5.821,-9.702 -1.072,-4.287 -5.416,-6.893 -9.702,-5.821 -10.816,2.705 -22.415,0.013 -33.538,-7.784 -14.02,-9.829 -26.874,-27.678 -37.173,-51.616 -25.167,-58.498 -78.267,-68.392 -109.169,-68.821 -0.693,-0.196 -1.423,-0.309 -2.18,-0.309 -0.757,0 -1.486,0.112 -2.18,0.309 -30.902,0.43 -84.001,10.324 -109.169,68.821 -10.299,23.938 -23.154,41.787 -37.173,51.616 -11.121998,7.797 -22.719998,10.49 -33.537998,7.784 -4.288,-1.071 -8.63,1.535 -9.702,5.821 -1.071,4.287 1.535,8.63 5.821,9.702 15.232,3.808 31.782998,0.184 46.603998,-10.206 16.687,-11.699 31.048,-31.346 42.686,-58.394 20.071,-46.651 61.306,-57.336 88.651,-58.929 V 324.43 c -17.075,0.411 -35.042,1.938 -52.506,3.431 -54.744,4.68 -111.350998,9.518 -143.048998,-19.587 -15.555,-14.282 -24.614,-35.961 -27.462,-65.917 6.797,6.367 14.623,9.958 23.017,9.958 26.916,0 48,-36.897 48,-84 0,-41.76 -16.577,-75.475003 -39.094,-82.592003 9.792,-4.638 23.178,-7.581 40.32,-8.9 30.186998,-2.324 67.267998,0.911 99.983998,3.766 21.425,1.869 41.681,3.632 58.09,3.717 0.054,10e-4 0.107,0.008 0.161,0.008 0.177,0 0.36,-0.003 0.538,-0.003 0.178,0 0.361,0.003 0.538,0.003 0.055,0 0.107,-0.007 0.161,-0.008 16.409,-0.085 36.665,-1.848 58.09,-3.717 32.715,-2.854 69.794,-6.089 99.984,-3.766 17.142,1.319 30.528,4.262 40.32,8.9 C 432.578,92.840997 416,126.556 416,168.316 c 0,47.103 21.084,84 48,84 8.394,0 16.22,-3.59 23.017,-9.958 -2.848,29.957 -11.907,51.636 -27.462,65.918 z"
     id="path36" /><path
     d="m 464,124.316 c -9.731,0 -12.542,12.651 -13.466,16.809 -1.634,7.352 -2.534,17.009 -2.534,27.191 0,10.182 0.9,19.839 2.534,27.191 0.924,4.157 3.735,16.809 13.466,16.809 9.731,0 12.542,-12.651 13.466,-16.809 1.634,-7.353 2.534,-17.009 2.534,-27.191 0,-10.182 -0.9,-19.839 -2.534,-27.191 -0.924,-4.158 -3.735,-16.809 -13.466,-16.809 z"
     id="path38" /><path
     d="m 48,212.316 c 9.731,0 12.542,-12.651 13.466,-16.809 C 63.1,188.155 64,178.498 64,168.316 64,158.134 63.1,148.477 61.466,141.125 60.542,136.967 57.731,124.316 48,124.316 c -9.731,0 -12.542,12.651 -13.466,16.809 C 32.9,148.477 32,158.134 32,168.316 c 0,10.182 0.9,19.839 2.534,27.191 0.924,4.158 3.735,16.809 13.466,16.809 z"
     id="path40" /><g
     id="g42">
</g><g
     id="g44">
</g><g
     id="g46">
</g><g
     id="g48">
</g><g
     id="g50">
</g><g
     id="g52">
</g><g
     id="g54">
</g><g
     id="g56">
</g><g
     id="g58">
</g><g
     id="g60">
</g><g
     id="g62">
</g><g
     id="g64">
</g><g
     id="g66">
</g><g
     id="g68">
</g><g
     id="g70">
</g></g>
</svg>
